<?xml version="1.0" encoding="UTF-8"?><svg xmlns="http://www.w3.org/2000/svg" viewBox="0 0 1190.55 841.89"><defs><style>.cls-1{stroke:#231f20;}.cls-1,.cls-2{fill:none;}.cls-1,.cls-2,.cls-3,.cls-4,.cls-5{stroke-width:2px;}.cls-1,.cls-6{stroke-miterlimit:10;}.cls-7{letter-spacing:0em;}.cls-8{letter-spacing:0em;}.cls-9,.cls-10,.cls-11{fill:#231f20;}.cls-12{letter-spacing:-.06em;}.cls-13,.cls-11,.cls-14,.cls-15,.cls-16{font-size:18px;}.cls-13,.cls-16{font-family:Roboto-Bold, Roboto;font-weight:700;}.cls-13,.cls-17{fill:#9f2064;}.cls-10,.cls-11,.cls-14,.cls-18,.cls-19,.cls-15,.cls-17{font-family:Roboto-Regular, Roboto;}.cls-10,.cls-19{font-size:12.98px;}.cls-20{letter-spacing:0em;}.cls-21{letter-spacing:-.01em;}.cls-22{letter-spacing:-.01em;}.cls-23{fill:#ecbcbe;stroke:#bd202e;}.cls-23,.cls-2,.cls-3,.cls-4,.cls-5{stroke-miterlimit:3.5;}.cls-24{letter-spacing:0em;}.cls-25{letter-spacing:.02em;}.cls-14,.cls-19{fill:#bd202e;}.cls-18,.cls-16{fill:#6472b6;}.cls-18,.cls-17{font-size:14px;}.cls-26{letter-spacing:0em;}.cls-27{letter-spacing:0em;}.cls-2,.cls-5{stroke:#9f2064;}.cls-15{fill:#464642;}.cls-3{fill:#ead98e;stroke:#d6b729;}.cls-28{letter-spacing:0em;}.cls-4{fill:#d1d4e9;stroke:#6472b6;}.cls-6{fill:#f6e4e5;stroke:#cb4b58;}.cls-29{letter-spacing:0em;}.cls-30{letter-spacing:0em;}.cls-31{letter-spacing:-.01em;}.cls-5{fill:#e2bcd0;}.cls-32{letter-spacing:-.02em;}.cls-33{letter-spacing:-.05em;}</style></defs><g id="Model_Comparison"><text class="cls-15" transform="translate(384.93 597.2)"><tspan x="0" y="0">inform</tspan></text></g><g id="Stakeholder_map"><rect class="cls-6" x="310.79" y="320.75" width="448.34" height="309.45" rx="12" ry="12"/><rect class="cls-3" x="334.27" y="342.81" width="88.75" height="88.75"/><text class="cls-10" transform="translate(347.6 359.83)"><tspan x="0" y="0">Alignment </tspan><tspan x="-4.6" y="15.58">resea</tspan><tspan class="cls-24" x="27.3" y="15.58">r</tspan><tspan x="31.57" y="15.58">chers </tspan><tspan x="4.86" y="31.16">studying </tspan><tspan x="1.58" y="46.73">deceptive </tspan><tspan x="6.29" y="62.31">beh</tspan><tspan class="cls-30" x="27.6" y="62.31">a</tspan><tspan x="34.57" y="62.31">vior</tspan></text><rect class="cls-3" x="334.27" y="470.34" width="88.75" height="88.75"/><text class="cls-10" transform="translate(351.16 510.72)"><tspan x="0" y="0">AI Safety </tspan><tspan x="-8.36" y="15.58">Resea</tspan><tspan class="cls-24" x="27.14" y="15.58">r</tspan><tspan x="31.41" y="15.58">chers</tspan></text><rect class="cls-3" x="520.19" y="169.02" width="88.75" height="88.75"/><text class="cls-10" transform="translate(530.61 201.62)"><tspan x="0" y="0">Journalism </tspan><tspan x="7.44" y="15.58">and tech </tspan><tspan x="16.07" y="31.16">media</tspan></text><rect class="cls-3" x="148.49" y="231.17" width="88.75" height="88.75"/><text class="cls-10" transform="translate(164.68 262.85)"><tspan x="0" y="0">Inves</tspan><tspan class="cls-8" x="30.55" y="0">t</tspan><tspan x="34.67" y="0">ors </tspan><tspan x="-2.9" y="15.58">funding AI </tspan><tspan x="-3.72" y="31.16">companies</tspan></text><rect class="cls-3" x="148.49" y="111.93" width="88.75" height="88.75"/><text class="cls-10" transform="translate(173.17 136.74)"><tspan x="0" y="0">AI labs</tspan><tspan x="-3.24" y="15.58">worries </tspan><tspan x="-8.81" y="31.16">about (IP)</tspan><tspan x="-6.86" y="46.73">exposure</tspan></text><rect class="cls-23" x="145.49" y="402.53" width="88.75" height="88.75"/><text class="cls-19" transform="translate(166.01 427.33)"><tspan class="cls-21" x="0" y="0">F</tspan><tspan class="cls-27" x="7.01" y="0">r</tspan><tspan class="cls-7" x="11.28" y="0">ontier </tspan><tspan x="2.55" y="15.58">AI labs </tspan><tspan x="-2.36" y="31.16">(OpenAI, </tspan><tspan x="-7.66" y="46.73">DeepMind)</tspan></text><rect class="cls-3" x="334.27" y="639.99" width="88.75" height="88.75"/><text class="cls-10" transform="translate(345.19 672.58)"><tspan x="0" y="0">National AI </tspan><tspan class="cls-30" x="5.16" y="15.58">o</tspan><tspan x="12.47" y="15.58">versight </tspan><tspan x="14.09" y="31.16">bodies</tspan></text><rect class="cls-3" x="520.19" y="402.53" width="88.75" height="88.75"/><text class="cls-10" transform="translate(536.2 442.91)"><tspan x="0" y="0">Scientific </tspan><tspan x="-3.85" y="15.58">institutions</tspan></text><rect class="cls-3" x="520.19" y="537.77" width="88.75" height="88.75"/><text class="cls-10" transform="translate(536.3 562.57)"><tspan x="0" y="0">Tech and </tspan><tspan x="1.2" y="15.58">software </tspan><tspan x="7.42" y="31.16">design </tspan><tspan x="5.63" y="46.73">schools</tspan></text><rect class="cls-3" x="655.68" y="402.53" width="88.75" height="88.75"/><text class="cls-10" transform="translate(681.31 441.07)"><tspan x="0" y="0">Ethics </tspan><tspan x="-14.73" y="15.58">resea</tspan><tspan class="cls-24" x="17.17" y="15.58">r</tspan><tspan x="21.44" y="15.58">chers</tspan></text><rect class="cls-3" x="981.51" y="402.53" width="88.75" height="88.75"/><text class="cls-10" transform="translate(995.84 435.12)"><tspan x="0" y="0">End users </tspan><tspan x="-3.97" y="15.58">affected by </tspan><tspan x="-5.18" y="31.16">AI decisions</tspan></text><rect class="cls-3" x="655.96" y="638.99" width="88.75" height="88.75"/><text class="cls-10" transform="translate(659.87 665.79)"><tspan class="cls-28" x="0" y="0">P</tspan><tspan class="cls-7" x="8.11" y="0">olicymakers </tspan><tspan x="-2.12" y="15.58">(EU regula</tspan><tspan class="cls-8" x="57.25" y="15.58">t</tspan><tspan x="61.36" y="15.58">ors </tspan><tspan x="5.3" y="31.16">under EU AI </tspan><tspan x="28.46" y="46.73">Act)</tspan></text><rect class="cls-3" x="814.53" y="537.77" width="88.75" height="88.75"/><text class="cls-10" transform="translate(845.21 570.36)"><tspan x="0" y="0">Civil </tspan><tspan x="-8.56" y="15.58">society </tspan><tspan x="-6.34" y="31.16">g</tspan><tspan class="cls-27" x=".94" y="31.16">r</tspan><tspan x="5.21" y="31.16">oups</tspan></text><line class="cls-1" x1="378.5" y1="560.75" x2="378.74" y2="627.92"/><path class="cls-9" d="M378.79,639.99c-2.13-5.67-5.75-12.71-9.57-17.06l9.52,3.41,9.5-3.47c-3.79,4.38-7.36,11.44-9.45,17.13Z"/><line class="cls-1" x1="423.61" y1="684.34" x2="643.3" y2="684.34"/><path class="cls-9" d="M655.37,684.34c-5.68,2.11-12.73,5.7-17.09,9.51l3.44-9.51-3.44-9.51c4.37,3.81,11.42,7.4,17.09,9.51Z"/><line class="cls-1" x1="699.91" y1="491.99" x2="699.91" y2="625.92"/><path class="cls-9" d="M699.91,637.99c-2.11-5.68-5.7-12.73-9.51-17.09l9.51,3.44,9.51-3.44c-3.81,4.37-7.4,11.42-9.51,17.09Z"/><path class="cls-1" d="M193.01,320.75v68.87"/><path class="cls-9" d="M193.01,401.69c-2.11-5.68-5.7-12.73-9.51-17.09l9.51,3.44,9.51-3.44c-3.81,4.37-7.4,11.42-9.51,17.09Z"/><line class="cls-1" x1="564.71" y1="491.99" x2="564.71" y2="525.44"/><path class="cls-9" d="M564.71,537.51c-2.11-5.68-5.7-12.73-9.51-17.09l9.51,3.44,9.51-3.44c-3.81,4.37-7.4,11.42-9.51,17.09Z"/><path class="cls-1" d="M424.02,388.33c16.04,0,32.08,0,48.13,0,0,20.44,0,40.89,0,61.33,11.99-.04,23.99-.09,35.98-.13"/><path class="cls-9" d="M520.19,449.49c-5.67,2.13-12.71,5.75-17.06,9.57l3.41-9.52-3.47-9.5c4.38,3.79,11.44,7.36,17.13,9.45Z"/><path class="cls-1" d="M424.02,510.99c16.04,0,32.08,0,48.13,0,0-20.44,0-40.89,0-61.33,11.99-.04,23.99-.09,35.98-.13"/><path class="cls-9" d="M520.19,449.49c-5.67,2.13-12.71,5.75-17.06,9.57l3.41-9.52-3.47-9.5c4.38,3.79,11.44,7.36,17.13,9.45Z"/><path class="cls-1" d="M333.27,386.75c-16.04,0-32.08,0-48.13,0,0,20.44,0,40.89,0,61.33h-37.83"/><path class="cls-9" d="M235.25,448.08c5.68-2.11,12.73-5.7,17.09-9.51l-3.44,9.51,3.44,9.51c-4.37-3.81-11.42-7.4-17.09-9.51Z"/><path class="cls-1" d="M333.27,509.41c-16.04,0-32.08,0-48.13,0,0-20.44,0-40.89,0-61.33h-37.83"/><path class="cls-9" d="M235.25,448.08c5.68-2.11,12.73-5.7,17.09-9.51l-3.44,9.51,3.44,9.51c-4.37-3.81-11.42-7.4-17.09-9.51Z"/><path class="cls-1" d="M238.02,155.99h234.12c0,20.44,0,40.89,0,61.33h34.79"/><path class="cls-9" d="M519,217.32c-5.68,2.11-12.73,5.7-17.09,9.51l3.44-9.51-3.44-9.51c4.37,3.81,11.42,7.4,17.09,9.51Z"/><path class="cls-1" d="M238.02,278.65h234.12c0-20.44,0-40.89,0-61.33h34.79"/><path class="cls-9" d="M519,217.32c-5.68,2.11-12.73,5.7-17.09,9.51l3.44-9.51-3.44-9.51c4.37,3.81,11.42,7.4,17.09,9.51Z"/><path class="cls-1" d="M563.68,402.53v-131.32"/><path class="cls-9" d="M563.68,259.14c2.11,5.68,5.7,12.73,9.51,17.09l-9.51-3.44-9.51,3.44c3.81-4.37,7.4-11.42,9.51-17.09Z"/><line class="cls-1" x1="608.95" y1="449.66" x2="642.49" y2="449.66"/><path class="cls-9" d="M654.56,449.66c-5.68,2.11-12.73,5.7-17.09,9.51l3.44-9.51-3.44-9.51c4.37,3.81,11.42,7.4,17.09,9.51Z"/><path class="cls-1" d="M609.77,217.35h418.87v171.89"/><path class="cls-9" d="M1028.64,401.31c-2.11-5.68-5.7-12.73-9.51-17.09l9.51,3.44,9.51-3.44c-3.81,4.37-7.4,11.42-9.51,17.09Z"/><path class="cls-1" d="M378.53,729.94c-.01,9.62-.02,19.23-.03,28.85,216.85-.18,433.71-.35,650.56-.53.09-83.98.18-167.95.27-251.93"/><path class="cls-9" d="M1029.34,494.26c2.1,5.68,5.69,12.73,9.49,17.1l-9.51-3.45-9.51,3.43c3.81-4.36,7.42-11.41,9.53-17.08Z"/><path class="cls-1" d="M608.95,581.27h193.52"/><path class="cls-9" d="M814.53,581.27c-5.68,2.11-12.73,5.7-17.09,9.51l3.44-9.51-3.44-9.51c4.37,3.81,11.42,7.4,17.09,9.51Z"/><circle class="cls-9" cx="472.11" cy="449.66" r="4.99"/><circle class="cls-9" cx="285.18" cy="448.08" r="4.99"/><circle class="cls-9" cx="472.11" cy="217.32" r="4.99"/><line class="cls-1" x1="27.35" y1="814.03" x2="1159.49" y2="814.03"/><path class="cls-9" d="M15.28,814.03c5.68,2.11,12.73,5.7,17.09,9.51l-3.44-9.51,3.44-9.51c-4.37,3.81-11.42,7.4-17.09,9.51Z"/><path class="cls-9" d="M1171.56,814.03c-5.68,2.11-12.73,5.7-17.09,9.51l3.44-9.51-3.44-9.51c4.37,3.81,11.42,7.4,17.09,9.51Z"/><text class="cls-11" transform="translate(45.35 804.58)"><tspan x="0" y="0">Most knowledge/power</tspan></text><text class="cls-11" transform="translate(949.56 804.58)"><tspan x="0" y="0">Least knowledge/power</tspan></text><path class="cls-1" d="M744.72,449.66c38.06-.02,76.13-.04,114.19-.06,0,25.2,0,50.4,0,75.6"/><path class="cls-9" d="M858.91,537.27c-2.11-5.68-5.7-12.73-9.51-17.09l9.51,3.44,9.51-3.44c-3.81,4.37-7.4,11.42-9.51,17.09Z"/><text class="cls-15" transform="translate(397.68 152.32)"><tspan x="0" y="0">inform</tspan></text><text class="cls-15" transform="translate(767.33 212.34)"><tspan x="0" y="0">inform</tspan></text><text class="cls-15" transform="translate(250.29 188.8)"><tspan x="0" y="0">h</tspan><tspan class="cls-29" x="9.91" y="0">a</tspan><tspan x="19.57" y="0">ve reason for </tspan><tspan x="0" y="21.6">downplaying risks </tspan><tspan x="0" y="43.2">and withholding </tspan><tspan x="0" y="64.8">information</tspan></text><text class="cls-14" transform="translate(146.07 514.75)"><tspan class="cls-22" x="0" y="0">K</tspan><tspan x="11.08" y="0">nowledge &amp;</tspan><tspan x="0" y="21.6">power monopoly</tspan></text><text class="cls-14" transform="translate(596.15 350.09)"><tspan x="0" y="0">Less power but </tspan><tspan x="0" y="21.6">knowledgable</tspan></text><line class="cls-1" x1="858.91" y1="449.6" x2="858.91" y2="217.35"/><circle class="cls-9" cx="858.91" cy="217.35" r="4.99"/><circle class="cls-9" cx="858.91" cy="449.13" r="4.99"/><text class="cls-15" transform="translate(769.2 444.14)"><tspan x="0" y="0">join/form</tspan></text><text class="cls-15" transform="translate(714.62 576.58)"><tspan x="0" y="0">join/form</tspan></text><line class="cls-1" x1="863.9" y1="449.13" x2="981.51" y2="449.13"/><text class="cls-15" transform="translate(880.67 442.91)"><tspan x="0" y="0">join/form</tspan></text><text class="cls-15" transform="translate(784.96 749.59)"><tspan x="0" y="0">g</tspan><tspan class="cls-29" x="10.1" y="0">o</tspan><tspan x="20.23" y="0">vern rules that affect</tspan></text><text class="cls-15" transform="translate(491.35 678.43)"><tspan x="0" y="0">work with</tspan></text><line class="cls-1" x1="700.34" y1="758.79" x2="700.34" y2="728.74"/><circle class="cls-9" cx="699.91" cy="758.79" r="4.99"/><text class="cls-15" transform="translate(345.47 456.78)"><tspan x="0" y="0">work for</tspan></text><text class="cls-15" transform="translate(102.71 353.75)"><tspan x="0" y="0">financially </tspan><tspan x="6.15" y="21.6">influence</tspan></text><text class="cls-15" transform="translate(147.3 563.5)"><tspan x="0" y="0">Are very financially </tspan><tspan x="0" y="21.6">dependent on its </tspan><tspan x="0" y="43.2">users </tspan></text><rect class="cls-4" x="15.28" y="87.95" width="115.03" height="115.03"/><text class="cls-18" transform="translate(33.92 115.95)"><tspan x="0" y="0">Can I create </tspan><tspan x="15.39" y="16.8">a more </tspan><tspan x="10.45" y="33.6">balanced</tspan><tspan x="13.24" y="50.4">division </tspan><tspan x="8.16" y="67.2">of power?</tspan></text><rect class="cls-4" x="440.63" y="308.16" width="115.03" height="115.03"/><text class="cls-18" transform="translate(454.45 327.76)"><tspan x="0" y="0">Can I help this </tspan><tspan x="7.03" y="16.8">g</tspan><tspan class="cls-20" x="14.89" y="16.8">r</tspan><tspan x="19.49" y="16.8">oup make </tspan><tspan x="-7.62" y="33.6">knowledge more </tspan><tspan x="2.93" y="50.4">accessible </tspan><tspan class="cls-20" x="72.59" y="50.4">t</tspan><tspan x="77.02" y="50.4">o </tspan><tspan x="-10.85" y="67.2">policymakers and </tspan><tspan x="12.04" y="84">the public?</tspan></text><rect class="cls-4" x="1034.87" y="497.66" width="128.68" height="115.03"/><text class="cls-18" transform="translate(1045.84 525.67)"><tspan x="0" y="0">Can I give people</tspan><tspan x="-.6" y="16.8">more oppo</tspan><tspan class="cls-25" x="66.95" y="16.8">r</tspan><tspan x="72.03" y="16.8">tunity</tspan><tspan class="cls-20" x="-3.61" y="33.6">t</tspan><tspan x=".83" y="33.6">o gain knowledge</tspan><tspan x="1.26" y="50.4">about AI agent</tspan><tspan class="cls-33" x="92.06" y="50.4">’</tspan><tspan x="94.09" y="50.4">s </tspan><tspan x="19.15" y="67.2">beh</tspan><tspan class="cls-29" x="42.14" y="67.2">a</tspan><tspan x="49.65" y="67.2">viour?</tspan></text><rect class="cls-5" x="24.86" y="196.27" width="115.03" height="115.03"/><text class="cls-17" transform="translate(54.77 224.28)"><tspan x="0" y="0">Not only </tspan><tspan x="-7.79" y="16.8">knowledge </tspan><tspan x="-1.38" y="33.6">is powe</tspan><tspan class="cls-12" x="46.47" y="33.6">r</tspan><tspan x="50.37" y="33.6">, </tspan><tspan x="-3.46" y="50.4">agency is </tspan><tspan x="6.92" y="67.2">powe</tspan><tspan class="cls-12" x="40.7" y="67.2">r</tspan><tspan x="44.59" y="67.2">.</tspan></text><rect class="cls-5" x="1056.54" y="604" width="115.03" height="115.03"/><text class="cls-17" transform="translate(1067.35 623.61)"><tspan x="0" y="0">Can I empower</tspan><tspan x="9.17" y="16.8">people with </tspan><tspan x="5.95" y="33.6">ways </tspan><tspan class="cls-20" x="41.39" y="33.6">t</tspan><tspan x="45.83" y="33.6">o take </tspan><tspan x="18.43" y="50.4">back the </tspan><tspan x="13.15" y="67.2">discussion</tspan><tspan x="4.96" y="84">about ethics?</tspan></text><rect class="cls-5" x="863.9" y="300.52" width="243.84" height="61.61"/><path class="cls-2" d="M1018.88,379.65c-39.68,47.1-38.06,100.44-16.34,117.45,26.23,20.54,91.02-4.66,96.67-35.63,6.4-35.13-61.04-90.18-102.31-70.48-25.45,12.15-41.38,52.96-26.9,79.35,17.32,31.56,75.82,38.28,103.58,6.71,19.69-22.4,21.54-61.36-2.23-86.06-23.5-24.41-63.57-26.05-89.85-2.66"/><text class="cls-17" transform="translate(875.88 320.75)"><tspan x="0" y="0">Why am I focusing on resea</tspan><tspan class="cls-26" x="171.98" y="0">r</tspan><tspan x="176.59" y="0">chers </tspan><tspan x="4.13" y="16.8">when the end users are the most </tspan><tspan x="1.63" y="33.6">vulne</tspan><tspan class="cls-32" x="34.67" y="33.6">r</tspan><tspan x="39.13" y="33.6">able and the most affected?</tspan></text><rect class="cls-4" x="933.21" y="21.25" width="238.13" height="41.31"/><text class="cls-16" transform="translate(942.04 49.25)"><tspan x="0" y="0">Thoughts before ref</tspan><tspan class="cls-31" x="161.64" y="0">r</tspan><tspan x="167.94" y="0">aming</tspan></text><rect class="cls-5" x="932.84" y="72.59" width="238.13" height="41.31"/><text class="cls-13" transform="translate(948.83 100.59)"><tspan x="0" y="0">Thoughts after ref</tspan><tspan class="cls-31" x="147.33" y="0">r</tspan><tspan x="153.63" y="0">aming</tspan></text></g></svg>